<?xml version="1.0" encoding="iso-8859-1"?>
<!DOCTYPE svg PUBLIC "-//W3C//DTD SVG 1.1//EN" "http://www.w3.org/Graphics/SVG/1.1/DTD/svg11.dtd">
<svg version="1.1" id="Capa_1" xmlns="http://www.w3.org/2000/svg" xmlns:xlink="http://www.w3.org/1999/xlink" x="0px" y="0px"
	 width="93.038px" height="93.038px" viewBox="0 0 93.038 93.038" style="enable-background:new 0 0 93.038 93.038;"
	 xml:space="preserve" fill="#cacaca">
<g>
	<path d="M46.547,75.521c0,1.639-0.947,3.128-2.429,3.823c-0.573,0.271-1.187,0.402-1.797,0.402c-0.966,0-1.923-0.332-2.696-0.973
		l-23.098-19.14H4.225C1.892,59.635,0,57.742,0,55.409V38.576c0-2.334,1.892-4.226,4.225-4.226h12.303l23.098-19.14
		c1.262-1.046,3.012-1.269,4.493-0.569c1.481,0.695,2.429,2.185,2.429,3.823L46.547,75.521L46.547,75.521z

		"/>
</g>
<g transform="translate(55, 30) scale(.8)">
	<path d="M27.948,20.878L40.291,8.536c1.953-1.953,1.953-5.119,0-7.071c-1.951-1.952-5.119-1.952-7.07,0L20.878,13.809L8.535,1.465
		c-1.951-1.952-5.119-1.952-7.07,0c-1.953,1.953-1.953,5.119,0,7.071l12.342,12.342L1.465,33.22c-1.953,1.953-1.953,5.119,0,7.071
		C2.44,41.268,3.721,41.755,5,41.755c1.278,0,2.56-0.487,3.535-1.464l12.343-12.342l12.343,12.343
		c0.976,0.977,2.256,1.464,3.535,1.464s2.56-0.487,3.535-1.464c1.953-1.953,1.953-5.119,0-7.071L27.948,20.878z"/>
</g>
</svg>
